<?xml version="1.0" standalone="no"?>
<!DOCTYPE svg PUBLIC "-//W3C//DTD SVG 20010904//EN"
 "http://www.w3.org/TR/2001/REC-SVG-20010904/DTD/svg10.dtd">
<svg version="1.0" xmlns="http://www.w3.org/2000/svg"
 width="700.000000pt" height="700.000000pt" viewBox="0 0 700.000000 700.000000"
 preserveAspectRatio="xMidYMid meet">
<metadata>
Created by potrace 1.14, written by Peter Selinger 2001-2017
</metadata>
<g transform="translate(0.000000,700.000000) scale(0.100000,-0.100000)"
fill="#000000" stroke="none">
<path d="M1553 5522 c-24 -2 -43 -6 -44 -10 0 -4 -2 -810 -3 -1792 -1 -982 -6
-1807 -10 -1835 -8 -56 -24 -150 -30 -180 -20 -94 -92 -220 -170 -299 -84 -85
-191 -153 -338 -215 -27 -11 -48 -24 -48 -28 0 -4 23 -66 51 -138 28 -71 54
-142 59 -157 4 -15 31 -84 58 -155 28 -70 58 -149 67 -174 l17 -47 91 33 c286
101 563 245 712 368 249 208 429 530 471 842 3 28 8 57 9 66 15 77 18 427 19
1953 1 1300 -2 1760 -10 1763 -13 5 -838 10 -901 5z"/>
<path d="M3205 5520 l-100 -5 0 -365 0 -365 803 -5 803 -5 -66 -95 c-36 -52
-71 -104 -79 -115 -8 -11 -60 -85 -115 -165 -126 -183 -319 -462 -435 -628
-49 -70 -121 -173 -160 -230 -39 -57 -102 -147 -139 -200 -37 -53 -80 -115
-95 -138 -15 -22 -76 -111 -137 -198 -60 -86 -114 -165 -120 -174 -5 -9 -14
-22 -20 -28 -5 -7 -102 -146 -215 -309 l-205 -297 0 -359 0 -359 50 -1 c324
-3 2758 0 2762 4 3 3 7 23 9 44 3 21 9 67 14 103 5 36 12 88 15 115 3 28 8 68
10 90 3 22 7 56 10 75 2 19 6 55 10 80 3 25 7 61 10 80 12 112 17 156 22 163
6 9 84 9 -909 10 -797 0 -876 2 -867 16 5 9 51 77 103 151 52 74 151 218 221
320 69 102 154 226 188 275 35 50 103 149 152 220 49 72 129 189 178 260 258
375 600 872 669 973 35 51 101 148 148 216 l86 123 -1 356 c0 195 -3 358 -7
362 -8 8 -2442 13 -2593 5z"/>
</g>
</svg>
